# xmcd
#
# Track frame offsets:
#	150
#	17035
#	35092
#	53140
#	67840
#	86615
#	105402
#
# Disc length: 1654 seconds
#
# Revision: 0
# Processed by: cddbd v1.4PL0 Copyright (c) Steve Scherf et al.
# Submitted via: dBpowerAMP V4.0
#
DISCID=4f067407
DTITLE=Mad Skillz - The Nod Factor Cd Single
DYEAR=1995
DGENRE=Hip-Hop
TTITLE0=The Nod Factor (Original Mix)
TTITLE1=The Nod Factor (Dirty Mix)
TTITLE2=The Nod Factor (Instrumental)
TTITLE3=The Nod Factor (A Cappella)
TTITLE4=Skillz in '95 (Original Mix)
TTITLE5=Skillz in '95 (Dirty Mix)
TTITLE6=Skillz in '95 (Instrumental)
EXTD=
EXTT0=
EXTT1=
EXTT2=
EXTT3=
EXTT4=
EXTT5=
EXTT6=
PLAYORDER=
